# xmcd
#
# Track frame offsets:
#	150
#	14100
#	24562
#	34799
#	46649
#	56925
#	68137
#	80860
#	92110
#	102610
#	113782
#	128270
#	140870
#	151956
#
# Disc length: 2210 seconds
#
# Revision: 1
# Processed by: cddbd v1.5.2PL0 Copyright (c) Steve Scherf et al.
# Submitted via: audiograbber 1.83.01
#
DISCID=c308a00e
DTITLE=Rob Ryan Roadshow - Goin` Old School
DYEAR=2014
DGENRE=Country
TTITLE0=Stay In Bed
TTITLE1=Song In My Head
TTITLE2=Call Me Shorty
TTITLE3=Cool Walkin´ Daddy
TTITLE4=Night Train To Memphis
TTITLE5=Doggone Lonesome
TTITLE6=Missionary Man
TTITLE7=Long Gone Day
TTITLE8=Catwalk Baby
TTITLE9=When I Found You
TTITLE10=Monkey Beat City
TTITLE11=Not Good Enough
TTITLE12=Call Me Shorty (alternate take 2)
TTITLE13=Stay In Bed (undubbed master)
EXTD=
EXTT0=
EXTT1=
EXTT2=
EXTT3=
EXTT4=
EXTT5=
EXTT6=
EXTT7=
EXTT8=
EXTT9=
EXTT10=
EXTT11=
EXTT12=
EXTT13=
PLAYORDER=
